# xmcd
#
# Track frame offsets:
#	150
#	53491
#	69398
#	85129
#	110033
#	128468
#	149752
#	174181
#	189683
#	206271
#	226912
#
# Disc length: 4118 seconds
#
# Revision: 1
# Processed by: cddbd v1.5.2PL0 Copyright (c) Steve Scherf et al.
# Submitted via: audiograbber 1.83.01
#
DISCID=9010140b
DTITLE=Lambchop - FLOTUS
DYEAR=2016
DGENRE=Soul
TTITLE0=In Care Of 8675309
TTITLE1=Directions To The Can
TTITLE2=Flotus
TTITLE3=JFK
TTITLE4=Howe
TTITLE5=Old Masters
TTITLE6=Relatives #2
TTITLE7=Harbor Country
TTITLE8=Writer
TTITLE9=NIV
TTITLE10=The Hustle
EXTD=
EXTT0=
EXTT1=
EXTT2=
EXTT3=
EXTT4=
EXTT5=
EXTT6=
EXTT7=
EXTT8=
EXTT9=
EXTT10=
PLAYORDER=
